<?xml version="1.0" standalone="no"?><!DOCTYPE svg PUBLIC "-//W3C//DTD SVG 1.1//EN" "http://www.w3.org/Graphics/SVG/1.1/DTD/svg11.dtd"><svg t="1726304369247" class="icon" viewBox="0 0 1228 1024" version="1.1" xmlns="http://www.w3.org/2000/svg" p-id="23127" xmlns:xlink="http://www.w3.org/1999/xlink" width="239.84375" height="200"><path d="M32 108.733c0-42.365 34.474-76.733 76.807-76.733h998.393c42.413 0 76.8 34.454 76.8 76.733v806.534c0 42.374-34.474 76.733-76.81 76.733h-998.39c-42.413 0-76.8-34.454-76.8-76.733v-806.534zM128 896h960v-768h-960v768zM822.954 472.832c3.293 2.333 6.346 5.126 9.063 8.37l332.64 397.584c6.958 8.272 11.185 19.043 11.185 30.802 0 26.511-21.491 48.002-48.002 48.002-14.752 0-27.951-6.655-36.756-17.127l-332.7-397.667c-5.319-6.313-9.065-14.122-10.524-22.708l-110.388 97.003c-8.046 6.307-18.315 10.114-29.472 10.114s-21.426-3.807-29.577-10.192l-111.706-86.897c-1.824 4.492-4.368 8.774-7.642 12.691l-332.659 397.584c-8.865 10.545-22.063 17.2-36.816 17.2-26.511 0-48.002-21.491-48.002-48.002 0-11.758 4.227-22.529 11.245-30.875l332.601-397.521c2.506-2.986 5.298-5.597 8.304-7.824l-333.619-259.488c-11.253-8.867-18.412-22.495-18.412-37.795 0-26.51 21.49-48.001 48.001-48.001 11.106 0 21.33 3.772 29.463 10.103l488.82 380.204 488.928-380.285c8.046-6.305 18.315-10.113 29.472-10.113 26.512 0 48.004 21.492 48.004 48.004 0 15.354-7.207 29.025-18.427 37.812l-333.033 259.011z" fill="#4990EE" p-id="23128"></path></svg>