<?xml version="1.0" standalone="no"?><!DOCTYPE svg PUBLIC "-//W3C//DTD SVG 1.1//EN" "http://www.w3.org/Graphics/SVG/1.1/DTD/svg11.dtd"><svg t="1726304281639" class="icon" viewBox="0 0 1024 1024" version="1.1" xmlns="http://www.w3.org/2000/svg" p-id="20368" xmlns:xlink="http://www.w3.org/1999/xlink" width="200" height="200"><path d="M608 928a96 96 0 0 1-192 0H64v-80.544A398.816 398.816 0 0 0 223.04 544H224s0-3.872-0.32-10.432c0-1.888 0.32-3.68 0.32-5.568 0-4.64-0.672-9.12-0.832-13.76-0.704-32.448-1.312-85.664 0.832-130.24a619.296 619.296 0 0 1 6.688-89.088 253.76 253.76 0 0 1 17.408-50.944c2.688-5.28 5.472-10.56 8.864-16a74.304 74.304 0 0 0 3.2-6.816 256.352 256.352 0 0 1 156.8-117.088C416.576 101.408 416 98.784 416 96a96 96 0 0 1 192 0c0 2.752-0.576 5.344-0.8 8.032a256 256 0 0 1 187.808 197.824 0.576 0.576 0 0 0 0-0.224A871.104 871.104 0 0 1 800 416c0.32 40.032 0.192 86.144 0 110.592V544h0.96A398.816 398.816 0 0 0 960 847.584V928H608z m128.8-384H736v-176A208 208 0 0 0 528 160h-32A208 208 0 0 0 288 368V544h-0.8a462.048 462.048 0 0 1-143.808 320h737.216a462.048 462.048 0 0 1-143.808-320z" fill="#6EA3E5" p-id="20369"></path></svg>