<?xml version="1.0" standalone="no"?><!DOCTYPE svg PUBLIC "-//W3C//DTD SVG 1.1//EN" "http://www.w3.org/Graphics/SVG/1.1/DTD/svg11.dtd"><svg t="1726981646674" class="icon" viewBox="0 0 1024 1024" version="1.1" xmlns="http://www.w3.org/2000/svg" p-id="1628" xmlns:xlink="http://www.w3.org/1999/xlink" width="200" height="200"><path d="M729.6 896H426.666667c-38.4 0-72.533333-12.8-102.4-34.133333-17.066667 21.333333-38.4 34.133333-68.266667 34.133333H170.666667c-46.933333 0-85.333333-38.4-85.333334-85.333333v-298.666667c0-46.933333 38.4-85.333333 85.333334-85.333333h128c72.533333 0 128-55.466667 128-128V256c0-72.533333 55.466667-128 128-128s128 55.466667 128 128v170.666667h85.333333c72.533333 0 128 55.466667 128 128v8.533333l-42.666667 213.333333c-17.066667 72.533333-68.266667 119.466667-123.733333 119.466667zM341.333333 725.333333c0 46.933333 38.4 85.333333 85.333334 85.333334h298.666666c17.066667 0 34.133333-17.066667 42.666667-51.2l42.666667-209.066667c0-21.333333-21.333333-38.4-42.666667-38.4h-128c-25.6 0-42.666667-17.066667-42.666667-42.666667V256c0-25.6-17.066667-42.666667-42.666666-42.666667s-42.666667 17.066667-42.666667 42.666667v42.666667c0 102.4-72.533333 187.733333-170.666667 209.066666V725.333333z m-170.666666-213.333333v298.666667h85.333333v-298.666667H170.666667z" p-id="1629"></path></svg>